# xmcd
# Track frame offsets:
# 150
# 10682
# 29362
# 43487
# 55929
# 73235
# 88582
# 103269
# 115448
# 127471
# 141392
# 154579
# 171047
# 188350
# 202830
# 215724
#
# Disc length: 3068 seconds
# Revision: 0
# Processed by: cddbd v1.5.2PL0 Copyright (c) Steve Scherf et al.
# Submitted via: VisiTrax 2.11.2.271 - For more info visit www.synapsa.com
#
DISCID=f00bfa10
DTITLE=Starr. John - Fond Memories
DYEAR=2006
DGENRE=Country
TTITLE0=All Over Again
TTITLE1=Cool Water
TTITLE2=Welcome To My Worrld
TTITLE3=Angel In The Rosebush. The
TTITLE4=Blizzard
TTITLE5=On Bended Knee
TTITLE6=Please Don't Tell Me How The Story Ends
TTITLE7=Can't We Still Be Friends
TTITLE8=Am I Losing You
TTITLE9=Sometimes I Dream
TTITLE10=We'll Never Say Goodbye
TTITLE11=Riding Down The Canyon
TTITLE12=After All These Years
TTITLE13=There's Nobody Home On The Range Anymore
TTITLE14=Jodie
TTITLE15=I Wonder If He's With You Tonight
EXTD=
EXTT0=
EXTT1=
EXTT2=
EXTT3=
EXTT4=
EXTT5=
EXTT6=
EXTT7=
EXTT8=
EXTT9=
EXTT10=
EXTT11=
EXTT12=
EXTT13=
EXTT14=
EXTT15=
PLAYORDER=
